<svg xmlns="http://www.w3.org/2000/svg" viewBox="0 0 512 512">
  <defs>
    <linearGradient id="bg" x1="0" y1="0" x2="1" y2="1">
      <stop offset="0%" stop-color="#6d28d9"/>
      <stop offset="100%" stop-color="#4338ca"/>
    </linearGradient>
  </defs>

  <!-- Background -->
  <rect width="512" height="512" rx="96" fill="url(#bg)"/>

  <!-- Document -->
  <rect x="130" y="88" width="210" height="248" rx="14" fill="white"/>
  <!-- Folded corner overlay -->
  <path d="M294 88 L340 88 L340 134 Z" fill="#ede9fe"/>
  <path d="M294 88 L294 134 L340 134 Z" fill="#ddd6fe"/>

  <!-- Binary text rows on document (groups of thin pills = characters) -->
  <!-- Row 1 -->
  <rect x="152" y="154" width="14" height="9" rx="4" fill="#6d28d9" opacity="0.45"/>
  <rect x="172" y="154" width="14" height="9" rx="4" fill="#6d28d9" opacity="0.25"/>
  <rect x="192" y="154" width="14" height="9" rx="4" fill="#6d28d9" opacity="0.45"/>
  <rect x="212" y="154" width="14" height="9" rx="4" fill="#6d28d9" opacity="0.45"/>
  <rect x="232" y="154" width="14" height="9" rx="4" fill="#6d28d9" opacity="0.25"/>
  <rect x="252" y="154" width="14" height="9" rx="4" fill="#6d28d9" opacity="0.45"/>
  <rect x="272" y="154" width="14" height="9" rx="4" fill="#6d28d9" opacity="0.25"/>
  <!-- Row 2 -->
  <rect x="152" y="176" width="14" height="9" rx="4" fill="#6d28d9" opacity="0.25"/>
  <rect x="172" y="176" width="14" height="9" rx="4" fill="#6d28d9" opacity="0.45"/>
  <rect x="192" y="176" width="14" height="9" rx="4" fill="#6d28d9" opacity="0.45"/>
  <rect x="212" y="176" width="14" height="9" rx="4" fill="#6d28d9" opacity="0.25"/>
  <rect x="232" y="176" width="14" height="9" rx="4" fill="#6d28d9" opacity="0.45"/>
  <rect x="252" y="176" width="14" height="9" rx="4" fill="#6d28d9" opacity="0.25"/>
  <!-- Row 3 -->
  <rect x="152" y="198" width="14" height="9" rx="4" fill="#6d28d9" opacity="0.45"/>
  <rect x="172" y="198" width="14" height="9" rx="4" fill="#6d28d9" opacity="0.45"/>
  <rect x="192" y="198" width="14" height="9" rx="4" fill="#6d28d9" opacity="0.25"/>
  <rect x="212" y="198" width="14" height="9" rx="4" fill="#6d28d9" opacity="0.45"/>
  <rect x="232" y="198" width="14" height="9" rx="4" fill="#6d28d9" opacity="0.25"/>
  <rect x="252" y="198" width="14" height="9" rx="4" fill="#6d28d9" opacity="0.45"/>
  <rect x="272" y="198" width="14" height="9" rx="4" fill="#6d28d9" opacity="0.45"/>

  <!-- Divider on document -->
  <rect x="152" y="222" width="136" height="1.5" rx="1" fill="#e5e7eb"/>

  <!-- Tree: root -->
  <line x1="235" y1="292" x2="175" y2="348" stroke="#c4b5fd" stroke-width="5"/>
  <line x1="235" y1="292" x2="295" y2="348" stroke="#c4b5fd" stroke-width="5"/>

  <!-- Branch labels -->
  <text x="195" y="340" fill="white" font-size="22" font-family="monospace" font-weight="700" text-anchor="middle" opacity="0.85">0</text>
  <text x="275" y="340" fill="white" font-size="22" font-family="monospace" font-weight="700" text-anchor="middle" opacity="0.85">1</text>

  <!-- Root node -->
  <circle cx="235" cy="270" r="22" fill="#7c3aed" stroke="white" stroke-width="4"/>

  <!-- Leaf nodes -->
  <circle cx="160" cy="368" r="18" fill="#7c3aed" stroke="white" stroke-width="3"/>
  <circle cx="310" cy="368" r="18" fill="#7c3aed" stroke="white" stroke-width="3"/>

  <!-- Leaf sub-branches (left) -->
  <line x1="148" y1="383" x2="120" y2="420" stroke="#a78bfa" stroke-width="4" opacity="0.7"/>
  <line x1="172" y1="383" x2="200" y2="420" stroke="#a78bfa" stroke-width="4" opacity="0.7"/>
  <circle cx="112" cy="430" r="12" fill="#8b5cf6" stroke="white" stroke-width="2.5"/>
  <circle cx="208" cy="430" r="12" fill="#8b5cf6" stroke="white" stroke-width="2.5"/>

  <!-- Leaf sub-branches (right) -->
  <line x1="298" y1="383" x2="270" y2="420" stroke="#a78bfa" stroke-width="4" opacity="0.7"/>
  <line x1="322" y1="383" x2="350" y2="420" stroke="#a78bfa" stroke-width="4" opacity="0.7"/>
  <circle cx="262" cy="430" r="12" fill="#8b5cf6" stroke="white" stroke-width="2.5"/>
  <circle cx="358" cy="430" r="12" fill="#8b5cf6" stroke="white" stroke-width="2.5"/>
</svg>
